{
    "asset" : {
        "generator" : "Khronos glTF Blender I/O v1.3.48",
        "version" : "2.0"
    },
    "scene" : 0,
    "scenes" : [
        {
            "name" : "Scene",
            "nodes" : [
                0,
                1,
                2
            ]
        }
    ],
    "nodes" : [
        {
            "name" : "Camera",
            "rotation" : [
                0.483536034822464,
                0.33687159419059753,
                -0.20870360732078552,
                0.7804827094078064
            ],
            "translation" : [
                7.358891487121582,
                4.958309173583984,
                6.925790786743164
            ]
        },
        {
            "mesh" : 0,
            "name" : "uploads_files_669181_cat_01_color05",
            "rotation" : [
                0.7071068286895752,
                0,
                0,
                0.7071067094802856
            ],
            "translation" : [
                3.7163851261138916,
                0,
                0
            ]
        },
        {
            "name" : "Sun",
            "translation" : [
                94.81594848632812,
                46.12788772583008,
                38.16006088256836
            ]
        }
    ],
    "materials" : [
        {
            "doubleSided" : true,
            "emissiveFactor" : [
                0,
                0,
                0
            ],
            "name" : "Material.002",
            "pbrMetallicRoughness" : {
                "baseColorTexture" : {
                    "index" : 0,
                    "texCoord" : 0
                },
                "metallicFactor" : 0,
                "roughnessFactor" : 0.5
            }
        }
    ],
    "meshes" : [
        {
            "name" : "uploads_files_669181_cat_01_color05",
            "primitives" : [
                {
                    "attributes" : {
                        "POSITION" : 0,
                        "NORMAL" : 1,
                        "TEXCOORD_0" : 2
                    },
                    "indices" : 3,
                    "material" : 0
                }
            ]
        }
    ],
    "textures" : [
        {
            "source" : 0
        }
    ],
    "images" : [
        {
            "bufferView" : 4,
            "mimeType" : "image/png",
            "name" : "cat_01_color05"
        }
    ],
    "accessors" : [
        {
            "bufferView" : 0,
            "componentType" : 5126,
            "count" : 11706,
            "max" : [
                7.348133087158203,
                25.9979190826416,
                0.0728980004787445
            ],
            "min" : [
                -7.360930919647217,
                -29.499778747558594,
                -37.23207092285156
            ],
            "type" : "VEC3"
        },
        {
            "bufferView" : 1,
            "componentType" : 5126,
            "count" : 11706,
            "type" : "VEC3"
        },
        {
            "bufferView" : 2,
            "componentType" : 5126,
            "count" : 11706,
            "type" : "VEC2"
        },
        {
            "bufferView" : 3,
            "componentType" : 5123,
            "count" : 11706,
            "type" : "SCALAR"
        }
    ],
    "bufferViews" : [
        {
            "buffer" : 0,
            "byteLength" : 140472,
            "byteOffset" : 0
        },
        {
            "buffer" : 0,
            "byteLength" : 140472,
            "byteOffset" : 140472
        },
        {
            "buffer" : 0,
            "byteLength" : 93648,
            "byteOffset" : 280944
        },
        {
            "buffer" : 0,
            "byteLength" : 23412,
            "byteOffset" : 374592
        },
        {
            "buffer" : 0,
            "byteLength" : 432275,
            "byteOffset" : 398004
        }
    ],
    "buffers" : [
        {
            "byteLength" : 830280,
            "uri" : "data:application/octet-stream;base64,"
        }
    ]
}
